<svg xmlns="http://www.w3.org/2000/svg" width="202" height="202" viewBox="0 0 202 202">
<!-- SVG created with Arrow, by QuiverAI (https://quiver.ai) -->
  <path d="m100.3 20.61c-20.45 0-38.58 7.56-52.29 20.74l-0.05 0.16c0.88 7.64 1.52 15.48 1.52 20.81 0 10.98-4.67 17.92-11.34 23.17-2.92 1.66-2.39 9.58-2.39 9.58l3.73 56.57c13.66 16.54 32.45 28.87 60.46 28.87 25.43 0 43.85-10.88 59.85-27.35l4.37-58.24c0-3.73-0.06-7.82-2.7-9.8-8.63-6.96-12.87-17.19-12.45-28.86 0.21-5.83 0.91-11.08 2-16.25-13.2-11.87-30.67-19.4-50.71-19.4zm0.02 127.7c-25.95 0-47.07-21.83-47.07-46.68 0-25.76 21.19-48.49 47.07-48.49 25.62 0 47.82 21.58 47.82 48.08 0 25.2-21.07 47.09-47.82 47.09z" fill="#0052DD"/>
  <path d="m175.5 24.78c-12.06 0-20.78 13.72-20.78 31.4 0 10.77 3.91 19.76 10.9 25.43 3.35 3.2 4.3 7.42 4.07 12.37l-4.52 75.93c0 7.11 5.22 10.98 10.41 10.98 6.45 0 10.92-5.4 10.92-11.06l-4.92-75.82c-0.1-5.38 1.8-10.11 5.46-13.53 7.03-6.06 9.88-14.51 9.88-24.3 0-14.64-8.35-31.4-21.42-31.4z" fill="#0052DD"/>
  <path d="m43.52 61.19-3.38-34.44c-0.18-1.32-0.82-1.91-2.06-1.91-1.25 0-1.99 1.05-1.99 2.04v33.39c0 1.33-0.9 2-1.86 2-1.04 0-1.81-0.82-1.81-1.9l-1.5-33.39c0-1.32-0.9-2.07-2.1-2.07s-2.11 0.9-2.11 2.07l-0.99 33.39c0 1.72-1.01 2-2.1 2-1.16 0-2.16-0.59-2.16-2l-0.2-33.31c0-1.3-1.02-2.15-2.04-2.15-1.25 0-2.16 0.85-2.16 2.15l-1.35 33.26c0 1.2-1.07 2-2.03 2-1.3 0-2.02-0.9-2.02-2.18l0.08-33.41c0-1.17-0.86-1.89-1.87-1.89-1.15 0-1.86 0.67-2.04 1.87l-2.92 34.45c-0.64 7.74 1.1 13.8 7.8 19.13 4.78 3.37 5.21 7.89 4.96 14.38l-4.76 74.84c0 6.6 4.99 11.05 10.84 11.05 6.77 0 11.11-5.84 11.11-11.01l-5.19-75.09c-0.05-5.17 1.18-10.42 5.14-13.03 7.31-4.95 9.33-11.39 8.71-20.24z" fill="#0052DD"/>
</svg>